<svg xmlns="http://www.w3.org/2000/svg" viewBox="0 0 1100 160" preserveAspectRatio="none"><title>Captured Piano MIR audio chroma</title><rect x="80.49" y="146.67" width="5.71" height="11.33" fill="#c4e6b7" opacity="0.138"/><rect x="87.20" y="146.67" width="5.71" height="11.33" fill="#c4e6b7" opacity="1.000"/><rect x="93.90" y="146.67" width="5.71" height="11.33" fill="#c4e6b7" opacity="1.000"/><rect x="100.61" y="146.67" width="5.71" height="11.33" fill="#c4e6b7" opacity="1.000"/><rect x="207.93" y="146.67" width="5.71" height="11.33" fill="#c4e6b7" opacity="1.000"/><rect x="214.63" y="146.67" width="5.71" height="11.33" fill="#c4e6b7" opacity="1.000"/><rect x="221.34" y="146.67" width="5.71" height="11.33" fill="#c4e6b7" opacity="1.000"/><rect x="228.05" y="146.67" width="5.71" height="11.33" fill="#c4e6b7" opacity="1.000"/><rect x="234.76" y="146.67" width="5.71" height="11.33" fill="#c4e6b7" opacity="1.000"/><rect x="241.46" y="146.67" width="5.71" height="11.33" fill="#c4e6b7" opacity="1.000"/><rect x="248.17" y="146.67" width="5.71" height="11.33" fill="#c4e6b7" opacity="1.000"/><rect x="254.88" y="146.67" width="5.71" height="11.33" fill="#c4e6b7" opacity="1.000"/><rect x="261.59" y="146.67" width="5.71" height="11.33" fill="#c4e6b7" opacity="1.000"/><rect x="268.29" y="146.67" width="5.71" height="11.33" fill="#c4e6b7" opacity="0.313"/><rect x="275.00" y="146.67" width="5.71" height="11.33" fill="#c4e6b7" opacity="0.194"/><rect x="281.71" y="146.67" width="5.71" height="11.33" fill="#c4e6b7" opacity="0.265"/><rect x="288.41" y="146.67" width="5.71" height="11.33" fill="#c4e6b7" opacity="0.054"/><rect x="295.12" y="146.67" width="5.71" height="11.33" fill="#c4e6b7" opacity="0.060"/><rect x="301.83" y="146.67" width="5.71" height="11.33" fill="#c4e6b7" opacity="0.029"/><rect x="308.54" y="146.67" width="5.71" height="11.33" fill="#c4e6b7" opacity="0.030"/><rect x="422.56" y="146.67" width="5.71" height="11.33" fill="#c4e6b7" opacity="0.418"/><rect x="429.27" y="146.67" width="5.71" height="11.33" fill="#c4e6b7" opacity="0.475"/><rect x="435.98" y="146.67" width="5.71" height="11.33" fill="#c4e6b7" opacity="0.474"/><rect x="442.68" y="146.67" width="5.71" height="11.33" fill="#c4e6b7" opacity="0.474"/><rect x="449.39" y="146.67" width="5.71" height="11.33" fill="#c4e6b7" opacity="0.475"/><rect x="456.10" y="146.67" width="5.71" height="11.33" fill="#c4e6b7" opacity="0.496"/><rect x="462.80" y="146.67" width="5.71" height="11.33" fill="#c4e6b7" opacity="0.114"/><rect x="476.22" y="146.67" width="5.71" height="11.33" fill="#c4e6b7" opacity="1.000"/><rect x="482.93" y="146.67" width="5.71" height="11.33" fill="#c4e6b7" opacity="1.000"/><rect x="489.63" y="146.67" width="5.71" height="11.33" fill="#c4e6b7" opacity="1.000"/><rect x="496.34" y="146.67" width="5.71" height="11.33" fill="#c4e6b7" opacity="0.236"/><rect x="563.41" y="146.67" width="5.71" height="11.33" fill="#c4e6b7" opacity="0.480"/><rect x="570.12" y="146.67" width="5.71" height="11.33" fill="#c4e6b7" opacity="1.000"/><rect x="576.83" y="146.67" width="5.71" height="11.33" fill="#c4e6b7" opacity="1.000"/><rect x="583.54" y="146.67" width="5.71" height="11.33" fill="#c4e6b7" opacity="1.000"/><rect x="751.22" y="146.67" width="5.71" height="11.33" fill="#c4e6b7" opacity="0.770"/><rect x="757.93" y="146.67" width="5.71" height="11.33" fill="#c4e6b7" opacity="0.584"/><rect x="764.63" y="146.67" width="5.71" height="11.33" fill="#c4e6b7" opacity="1.000"/><rect x="771.34" y="146.67" width="5.71" height="11.33" fill="#c4e6b7" opacity="0.550"/><rect x="798.17" y="146.67" width="5.71" height="11.33" fill="#c4e6b7" opacity="1.000"/><rect x="804.88" y="146.67" width="5.71" height="11.33" fill="#c4e6b7" opacity="1.000"/><rect x="811.59" y="146.67" width="5.71" height="11.33" fill="#c4e6b7" opacity="1.000"/><rect x="818.29" y="146.67" width="5.71" height="11.33" fill="#c4e6b7" opacity="1.000"/><rect x="939.02" y="146.67" width="5.71" height="11.33" fill="#c4e6b7" opacity="0.280"/><rect x="945.73" y="146.67" width="5.71" height="11.33" fill="#c4e6b7" opacity="1.000"/><rect x="952.44" y="146.67" width="5.71" height="11.33" fill="#c4e6b7" opacity="1.000"/><rect x="959.15" y="146.67" width="5.71" height="11.33" fill="#c4e6b7" opacity="1.000"/><rect x="1066.46" y="146.67" width="5.71" height="11.33" fill="#c4e6b7" opacity="1.000"/><rect x="1073.17" y="146.67" width="5.71" height="11.33" fill="#c4e6b7" opacity="1.000"/><rect x="0.00" y="120.00" width="5.71" height="11.33" fill="#c4e6b7" opacity="1.000"/><rect x="6.71" y="120.00" width="5.71" height="11.33" fill="#c4e6b7" opacity="1.000"/><rect x="13.41" y="120.00" width="5.71" height="11.33" fill="#c4e6b7" opacity="1.000"/><rect x="20.12" y="120.00" width="5.71" height="11.33" fill="#c4e6b7" opacity="1.000"/><rect x="26.83" y="120.00" width="5.71" height="11.33" fill="#c4e6b7" opacity="1.000"/><rect x="53.66" y="120.00" width="5.71" height="11.33" fill="#c4e6b7" opacity="0.061"/><rect x="60.37" y="120.00" width="5.71" height="11.33" fill="#c4e6b7" opacity="0.060"/><rect x="100.61" y="120.00" width="5.71" height="11.33" fill="#c4e6b7" opacity="0.359"/><rect x="107.32" y="120.00" width="5.71" height="11.33" fill="#c4e6b7" opacity="0.352"/><rect x="114.02" y="120.00" width="5.71" height="11.33" fill="#c4e6b7" opacity="0.351"/><rect x="120.73" y="120.00" width="5.71" height="11.33" fill="#c4e6b7" opacity="0.351"/><rect x="127.44" y="120.00" width="5.71" height="11.33" fill="#c4e6b7" opacity="0.351"/><rect x="134.15" y="120.00" width="5.71" height="11.33" fill="#c4e6b7" opacity="0.351"/><rect x="261.59" y="120.00" width="5.71" height="11.33" fill="#c4e6b7" opacity="1.000"/><rect x="268.29" y="120.00" width="5.71" height="11.33" fill="#c4e6b7" opacity="1.000"/><rect x="275.00" y="120.00" width="5.71" height="11.33" fill="#c4e6b7" opacity="1.000"/><rect x="281.71" y="120.00" width="5.71" height="11.33" fill="#c4e6b7" opacity="1.000"/><rect x="456.10" y="120.00" width="5.71" height="11.33" fill="#c4e6b7" opacity="0.251"/><rect x="462.80" y="120.00" width="5.71" height="11.33" fill="#c4e6b7" opacity="1.000"/><rect x="469.51" y="120.00" width="5.71" height="11.33" fill="#c4e6b7" opacity="1.000"/><rect x="476.22" y="120.00" width="5.71" height="11.33" fill="#c4e6b7" opacity="1.000"/><rect x="637.20" y="120.00" width="5.71" height="11.33" fill="#c4e6b7" opacity="0.984"/><rect x="643.90" y="120.00" width="5.71" height="11.33" fill="#c4e6b7" opacity="1.000"/><rect x="650.61" y="120.00" width="5.71" height="11.33" fill="#c4e6b7" opacity="0.203"/><rect x="744.51" y="120.00" width="5.71" height="11.33" fill="#c4e6b7" opacity="1.000"/><rect x="751.22" y="120.00" width="5.71" height="11.33" fill="#c4e6b7" opacity="1.000"/><rect x="757.93" y="120.00" width="5.71" height="11.33" fill="#c4e6b7" opacity="1.000"/><rect x="764.63" y="120.00" width="5.71" height="11.33" fill="#c4e6b7" opacity="1.000"/><rect x="771.34" y="120.00" width="5.71" height="11.33" fill="#c4e6b7" opacity="1.000"/><rect x="778.05" y="120.00" width="5.71" height="11.33" fill="#c4e6b7" opacity="1.000"/><rect x="784.76" y="120.00" width="5.71" height="11.33" fill="#c4e6b7" opacity="1.000"/><rect x="791.46" y="120.00" width="5.71" height="11.33" fill="#c4e6b7" opacity="1.000"/><rect x="798.17" y="120.00" width="5.71" height="11.33" fill="#c4e6b7" opacity="1.000"/><rect x="851.83" y="120.00" width="5.71" height="11.33" fill="#c4e6b7" opacity="0.388"/><rect x="858.54" y="120.00" width="5.71" height="11.33" fill="#c4e6b7" opacity="0.346"/><rect x="865.24" y="120.00" width="5.71" height="11.33" fill="#c4e6b7" opacity="0.346"/><rect x="871.95" y="120.00" width="5.71" height="11.33" fill="#c4e6b7" opacity="0.346"/><rect x="878.66" y="120.00" width="5.71" height="11.33" fill="#c4e6b7" opacity="0.346"/><rect x="885.37" y="120.00" width="5.71" height="11.33" fill="#c4e6b7" opacity="0.346"/><rect x="959.15" y="120.00" width="5.71" height="11.33" fill="#c4e6b7" opacity="0.097"/><rect x="1073.17" y="120.00" width="5.71" height="11.33" fill="#c4e6b7" opacity="1.000"/><rect x="281.71" y="93.33" width="5.71" height="11.33" fill="#c4e6b7" opacity="1.000"/><rect x="288.41" y="93.33" width="5.71" height="11.33" fill="#c4e6b7" opacity="1.000"/><rect x="295.12" y="93.33" width="5.71" height="11.33" fill="#c4e6b7" opacity="1.000"/><rect x="301.83" y="93.33" width="5.71" height="11.33" fill="#c4e6b7" opacity="0.096"/><rect x="1066.46" y="93.33" width="5.71" height="11.33" fill="#c4e6b7" opacity="0.096"/><rect x="1073.17" y="93.33" width="5.71" height="11.33" fill="#c4e6b7" opacity="0.479"/><rect x="295.12" y="66.67" width="5.71" height="11.33" fill="#c4e6b7" opacity="1.000"/><rect x="301.83" y="66.67" width="5.71" height="11.33" fill="#c4e6b7" opacity="1.000"/><rect x="308.54" y="66.67" width="5.71" height="11.33" fill="#c4e6b7" opacity="1.000"/><rect x="315.24" y="66.67" width="5.71" height="11.33" fill="#c4e6b7" opacity="1.000"/><rect x="637.20" y="66.67" width="5.71" height="11.33" fill="#c4e6b7" opacity="1.000"/><rect x="643.90" y="66.67" width="5.71" height="11.33" fill="#c4e6b7" opacity="1.000"/><rect x="650.61" y="66.67" width="5.71" height="11.33" fill="#c4e6b7" opacity="1.000"/><rect x="657.32" y="66.67" width="5.71" height="11.33" fill="#c4e6b7" opacity="1.000"/><rect x="664.02" y="66.67" width="5.71" height="11.33" fill="#c4e6b7" opacity="1.000"/><rect x="670.73" y="66.67" width="5.71" height="11.33" fill="#c4e6b7" opacity="1.000"/><rect x="0.00" y="53.33" width="5.71" height="11.33" fill="#c4e6b7" opacity="0.390"/><rect x="6.71" y="53.33" width="5.71" height="11.33" fill="#c4e6b7" opacity="0.395"/><rect x="13.41" y="53.33" width="5.71" height="11.33" fill="#c4e6b7" opacity="0.400"/><rect x="20.12" y="53.33" width="5.71" height="11.33" fill="#c4e6b7" opacity="0.407"/><rect x="26.83" y="53.33" width="5.71" height="11.33" fill="#c4e6b7" opacity="1.000"/><rect x="33.54" y="53.33" width="5.71" height="11.33" fill="#c4e6b7" opacity="1.000"/><rect x="40.24" y="53.33" width="5.71" height="11.33" fill="#c4e6b7" opacity="1.000"/><rect x="46.95" y="53.33" width="5.71" height="11.33" fill="#c4e6b7" opacity="1.000"/><rect x="53.66" y="53.33" width="5.71" height="11.33" fill="#c4e6b7" opacity="0.408"/><rect x="60.37" y="53.33" width="5.71" height="11.33" fill="#c4e6b7" opacity="0.232"/><rect x="134.15" y="53.33" width="5.71" height="11.33" fill="#c4e6b7" opacity="0.289"/><rect x="140.85" y="53.33" width="5.71" height="11.33" fill="#c4e6b7" opacity="1.000"/><rect x="147.56" y="53.33" width="5.71" height="11.33" fill="#c4e6b7" opacity="1.000"/><rect x="154.27" y="53.33" width="5.71" height="11.33" fill="#c4e6b7" opacity="1.000"/><rect x="160.98" y="53.33" width="5.71" height="11.33" fill="#c4e6b7" opacity="0.212"/><rect x="174.39" y="53.33" width="5.71" height="11.33" fill="#c4e6b7" opacity="1.000"/><rect x="181.10" y="53.33" width="5.71" height="11.33" fill="#c4e6b7" opacity="1.000"/><rect x="187.80" y="53.33" width="5.71" height="11.33" fill="#c4e6b7" opacity="1.000"/><rect x="194.51" y="53.33" width="5.71" height="11.33" fill="#c4e6b7" opacity="1.000"/><rect x="201.22" y="53.33" width="5.71" height="11.33" fill="#c4e6b7" opacity="1.000"/><rect x="207.93" y="53.33" width="5.71" height="11.33" fill="#c4e6b7" opacity="1.000"/><rect x="315.24" y="53.33" width="5.71" height="11.33" fill="#c4e6b7" opacity="0.298"/><rect x="321.95" y="53.33" width="5.71" height="11.33" fill="#c4e6b7" opacity="0.311"/><rect x="328.66" y="53.33" width="5.71" height="11.33" fill="#c4e6b7" opacity="0.311"/><rect x="335.37" y="53.33" width="5.71" height="11.33" fill="#c4e6b7" opacity="0.311"/><rect x="342.07" y="53.33" width="5.71" height="11.33" fill="#c4e6b7" opacity="0.311"/><rect x="348.78" y="53.33" width="5.71" height="11.33" fill="#c4e6b7" opacity="1.000"/><rect x="355.49" y="53.33" width="5.71" height="11.33" fill="#c4e6b7" opacity="1.000"/><rect x="362.20" y="53.33" width="5.71" height="11.33" fill="#c4e6b7" opacity="1.000"/><rect x="368.90" y="53.33" width="5.71" height="11.33" fill="#c4e6b7" opacity="1.000"/><rect x="375.61" y="53.33" width="5.71" height="11.33" fill="#c4e6b7" opacity="0.326"/><rect x="382.32" y="53.33" width="5.71" height="11.33" fill="#c4e6b7" opacity="0.507"/><rect x="389.02" y="53.33" width="5.71" height="11.33" fill="#c4e6b7" opacity="1.000"/><rect x="395.73" y="53.33" width="5.71" height="11.33" fill="#c4e6b7" opacity="1.000"/><rect x="402.44" y="53.33" width="5.71" height="11.33" fill="#c4e6b7" opacity="1.000"/><rect x="409.15" y="53.33" width="5.71" height="11.33" fill="#c4e6b7" opacity="1.000"/><rect x="415.85" y="53.33" width="5.71" height="11.33" fill="#c4e6b7" opacity="1.000"/><rect x="422.56" y="53.33" width="5.71" height="11.33" fill="#c4e6b7" opacity="1.000"/><rect x="529.88" y="53.33" width="5.71" height="11.33" fill="#c4e6b7" opacity="1.000"/><rect x="536.59" y="53.33" width="5.71" height="11.33" fill="#c4e6b7" opacity="1.000"/><rect x="543.29" y="53.33" width="5.71" height="11.33" fill="#c4e6b7" opacity="1.000"/><rect x="550.00" y="53.33" width="5.71" height="11.33" fill="#c4e6b7" opacity="1.000"/><rect x="556.71" y="53.33" width="5.71" height="11.33" fill="#c4e6b7" opacity="1.000"/><rect x="563.41" y="53.33" width="5.71" height="11.33" fill="#c4e6b7" opacity="1.000"/><rect x="570.12" y="53.33" width="5.71" height="11.33" fill="#c4e6b7" opacity="0.027"/><rect x="583.54" y="53.33" width="5.71" height="11.33" fill="#c4e6b7" opacity="0.127"/><rect x="590.24" y="53.33" width="5.71" height="11.33" fill="#c4e6b7" opacity="0.127"/><rect x="596.95" y="53.33" width="5.71" height="11.33" fill="#c4e6b7" opacity="0.128"/><rect x="603.66" y="53.33" width="5.71" height="11.33" fill="#c4e6b7" opacity="0.172"/><rect x="610.37" y="53.33" width="5.71" height="11.33" fill="#c4e6b7" opacity="0.046"/><rect x="617.07" y="53.33" width="5.71" height="11.33" fill="#c4e6b7" opacity="1.000"/><rect x="623.78" y="53.33" width="5.71" height="11.33" fill="#c4e6b7" opacity="1.000"/><rect x="630.49" y="53.33" width="5.71" height="11.33" fill="#c4e6b7" opacity="1.000"/><rect x="637.20" y="53.33" width="5.71" height="11.33" fill="#c4e6b7" opacity="1.000"/><rect x="670.73" y="53.33" width="5.71" height="11.33" fill="#c4e6b7" opacity="0.586"/><rect x="677.44" y="53.33" width="5.71" height="11.33" fill="#c4e6b7" opacity="0.710"/><rect x="684.15" y="53.33" width="5.71" height="11.33" fill="#c4e6b7" opacity="1.000"/><rect x="690.85" y="53.33" width="5.71" height="11.33" fill="#c4e6b7" opacity="1.000"/><rect x="704.27" y="53.33" width="5.71" height="11.33" fill="#c4e6b7" opacity="0.061"/><rect x="710.98" y="53.33" width="5.71" height="11.33" fill="#c4e6b7" opacity="1.000"/><rect x="717.68" y="53.33" width="5.71" height="11.33" fill="#c4e6b7" opacity="1.000"/><rect x="724.39" y="53.33" width="5.71" height="11.33" fill="#c4e6b7" opacity="1.000"/><rect x="731.10" y="53.33" width="5.71" height="11.33" fill="#c4e6b7" opacity="1.000"/><rect x="737.80" y="53.33" width="5.71" height="11.33" fill="#c4e6b7" opacity="1.000"/><rect x="744.51" y="53.33" width="5.71" height="11.33" fill="#c4e6b7" opacity="1.000"/><rect x="885.37" y="53.33" width="5.71" height="11.33" fill="#c4e6b7" opacity="0.570"/><rect x="892.07" y="53.33" width="5.71" height="11.33" fill="#c4e6b7" opacity="1.000"/><rect x="898.78" y="53.33" width="5.71" height="11.33" fill="#c4e6b7" opacity="1.000"/><rect x="905.49" y="53.33" width="5.71" height="11.33" fill="#c4e6b7" opacity="1.000"/><rect x="959.15" y="53.33" width="5.71" height="11.33" fill="#c4e6b7" opacity="1.000"/><rect x="965.85" y="53.33" width="5.71" height="11.33" fill="#c4e6b7" opacity="1.000"/><rect x="972.56" y="53.33" width="5.71" height="11.33" fill="#c4e6b7" opacity="1.000"/><rect x="979.27" y="53.33" width="5.71" height="11.33" fill="#c4e6b7" opacity="1.000"/><rect x="985.98" y="53.33" width="5.71" height="11.33" fill="#c4e6b7" opacity="1.000"/><rect x="992.68" y="53.33" width="5.71" height="11.33" fill="#c4e6b7" opacity="1.000"/><rect x="999.39" y="53.33" width="5.71" height="11.33" fill="#c4e6b7" opacity="1.000"/><rect x="1006.10" y="53.33" width="5.71" height="11.33" fill="#c4e6b7" opacity="0.641"/><rect x="1012.80" y="53.33" width="5.71" height="11.33" fill="#c4e6b7" opacity="0.875"/><rect x="1019.51" y="53.33" width="5.71" height="11.33" fill="#c4e6b7" opacity="1.000"/><rect x="1026.22" y="53.33" width="5.71" height="11.33" fill="#c4e6b7" opacity="1.000"/><rect x="1032.93" y="53.33" width="5.71" height="11.33" fill="#c4e6b7" opacity="1.000"/><rect x="1039.63" y="53.33" width="5.71" height="11.33" fill="#c4e6b7" opacity="1.000"/><rect x="1046.34" y="53.33" width="5.71" height="11.33" fill="#c4e6b7" opacity="1.000"/><rect x="1053.05" y="53.33" width="5.71" height="11.33" fill="#c4e6b7" opacity="1.000"/><rect x="1059.76" y="53.33" width="5.71" height="11.33" fill="#c4e6b7" opacity="1.000"/><rect x="1066.46" y="53.33" width="5.71" height="11.33" fill="#c4e6b7" opacity="1.000"/><rect x="1073.17" y="53.33" width="5.71" height="11.33" fill="#c4e6b7" opacity="0.028"/><rect x="959.15" y="40.00" width="5.71" height="11.33" fill="#c4e6b7" opacity="0.699"/><rect x="46.95" y="26.67" width="5.71" height="11.33" fill="#c4e6b7" opacity="0.802"/><rect x="53.66" y="26.67" width="5.71" height="11.33" fill="#c4e6b7" opacity="1.000"/><rect x="60.37" y="26.67" width="5.71" height="11.33" fill="#c4e6b7" opacity="1.000"/><rect x="67.07" y="26.67" width="5.71" height="11.33" fill="#c4e6b7" opacity="1.000"/><rect x="73.78" y="26.67" width="5.71" height="11.33" fill="#c4e6b7" opacity="1.000"/><rect x="80.49" y="26.67" width="5.71" height="11.33" fill="#c4e6b7" opacity="1.000"/><rect x="87.20" y="26.67" width="5.71" height="11.33" fill="#c4e6b7" opacity="1.000"/><rect x="93.90" y="26.67" width="5.71" height="11.33" fill="#c4e6b7" opacity="0.930"/><rect x="100.61" y="26.67" width="5.71" height="11.33" fill="#c4e6b7" opacity="0.977"/><rect x="422.56" y="26.67" width="5.71" height="11.33" fill="#c4e6b7" opacity="1.000"/><rect x="429.27" y="26.67" width="5.71" height="11.33" fill="#c4e6b7" opacity="1.000"/><rect x="435.98" y="26.67" width="5.71" height="11.33" fill="#c4e6b7" opacity="1.000"/><rect x="442.68" y="26.67" width="5.71" height="11.33" fill="#c4e6b7" opacity="1.000"/><rect x="449.39" y="26.67" width="5.71" height="11.33" fill="#c4e6b7" opacity="1.000"/><rect x="456.10" y="26.67" width="5.71" height="11.33" fill="#c4e6b7" opacity="1.000"/><rect x="462.80" y="26.67" width="5.71" height="11.33" fill="#c4e6b7" opacity="0.029"/><rect x="476.22" y="26.67" width="5.71" height="11.33" fill="#c4e6b7" opacity="0.195"/><rect x="482.93" y="26.67" width="5.71" height="11.33" fill="#c4e6b7" opacity="0.173"/><rect x="489.63" y="26.67" width="5.71" height="11.33" fill="#c4e6b7" opacity="0.270"/><rect x="496.34" y="26.67" width="5.71" height="11.33" fill="#c4e6b7" opacity="0.106"/><rect x="503.05" y="26.67" width="5.71" height="11.33" fill="#c4e6b7" opacity="0.036"/><rect x="509.76" y="26.67" width="5.71" height="11.33" fill="#c4e6b7" opacity="1.000"/><rect x="516.46" y="26.67" width="5.71" height="11.33" fill="#c4e6b7" opacity="1.000"/><rect x="523.17" y="26.67" width="5.71" height="11.33" fill="#c4e6b7" opacity="1.000"/><rect x="529.88" y="26.67" width="5.71" height="11.33" fill="#c4e6b7" opacity="1.000"/><rect x="603.66" y="26.67" width="5.71" height="11.33" fill="#c4e6b7" opacity="1.000"/><rect x="610.37" y="26.67" width="5.71" height="11.33" fill="#c4e6b7" opacity="1.000"/><rect x="617.07" y="26.67" width="5.71" height="11.33" fill="#c4e6b7" opacity="1.000"/><rect x="623.78" y="26.67" width="5.71" height="11.33" fill="#c4e6b7" opacity="0.059"/><rect x="690.85" y="26.67" width="5.71" height="11.33" fill="#c4e6b7" opacity="1.000"/><rect x="697.56" y="26.67" width="5.71" height="11.33" fill="#c4e6b7" opacity="1.000"/><rect x="704.27" y="26.67" width="5.71" height="11.33" fill="#c4e6b7" opacity="1.000"/><rect x="710.98" y="26.67" width="5.71" height="11.33" fill="#c4e6b7" opacity="0.361"/><rect x="798.17" y="26.67" width="5.71" height="11.33" fill="#c4e6b7" opacity="0.374"/><rect x="804.88" y="26.67" width="5.71" height="11.33" fill="#c4e6b7" opacity="0.350"/><rect x="811.59" y="26.67" width="5.71" height="11.33" fill="#c4e6b7" opacity="0.553"/><rect x="818.29" y="26.67" width="5.71" height="11.33" fill="#c4e6b7" opacity="0.256"/><rect x="825.00" y="26.67" width="5.71" height="11.33" fill="#c4e6b7" opacity="0.131"/><rect x="831.71" y="26.67" width="5.71" height="11.33" fill="#c4e6b7" opacity="1.000"/><rect x="838.41" y="26.67" width="5.71" height="11.33" fill="#c4e6b7" opacity="1.000"/><rect x="845.12" y="26.67" width="5.71" height="11.33" fill="#c4e6b7" opacity="1.000"/><rect x="851.83" y="26.67" width="5.71" height="11.33" fill="#c4e6b7" opacity="1.000"/><rect x="905.49" y="26.67" width="5.71" height="11.33" fill="#c4e6b7" opacity="1.000"/><rect x="912.20" y="26.67" width="5.71" height="11.33" fill="#c4e6b7" opacity="1.000"/><rect x="918.90" y="26.67" width="5.71" height="11.33" fill="#c4e6b7" opacity="1.000"/><rect x="925.61" y="26.67" width="5.71" height="11.33" fill="#c4e6b7" opacity="1.000"/><rect x="932.32" y="26.67" width="5.71" height="11.33" fill="#c4e6b7" opacity="1.000"/><rect x="939.02" y="26.67" width="5.71" height="11.33" fill="#c4e6b7" opacity="1.000"/><rect x="945.73" y="26.67" width="5.71" height="11.33" fill="#c4e6b7" opacity="1.000"/><rect x="952.44" y="26.67" width="5.71" height="11.33" fill="#c4e6b7" opacity="0.907"/><rect x="959.15" y="26.67" width="5.71" height="11.33" fill="#c4e6b7" opacity="1.000"/><rect x="60.37" y="13.33" width="5.71" height="11.33" fill="#c4e6b7" opacity="0.161"/><rect x="422.56" y="13.33" width="5.71" height="11.33" fill="#c4e6b7" opacity="0.130"/><rect x="811.59" y="13.33" width="5.71" height="11.33" fill="#c4e6b7" opacity="0.132"/><rect x="53.66" y="0.00" width="5.71" height="11.33" fill="#c4e6b7" opacity="0.130"/><rect x="60.37" y="0.00" width="5.71" height="11.33" fill="#c4e6b7" opacity="0.141"/><rect x="67.07" y="0.00" width="5.71" height="11.33" fill="#c4e6b7" opacity="0.446"/><rect x="73.78" y="0.00" width="5.71" height="11.33" fill="#c4e6b7" opacity="0.629"/><rect x="80.49" y="0.00" width="5.71" height="11.33" fill="#c4e6b7" opacity="0.680"/><rect x="87.20" y="0.00" width="5.71" height="11.33" fill="#c4e6b7" opacity="0.229"/><rect x="100.61" y="0.00" width="5.71" height="11.33" fill="#c4e6b7" opacity="1.000"/><rect x="107.32" y="0.00" width="5.71" height="11.33" fill="#c4e6b7" opacity="1.000"/><rect x="114.02" y="0.00" width="5.71" height="11.33" fill="#c4e6b7" opacity="1.000"/><rect x="120.73" y="0.00" width="5.71" height="11.33" fill="#c4e6b7" opacity="1.000"/><rect x="127.44" y="0.00" width="5.71" height="11.33" fill="#c4e6b7" opacity="1.000"/><rect x="134.15" y="0.00" width="5.71" height="11.33" fill="#c4e6b7" opacity="1.000"/><rect x="154.27" y="0.00" width="5.71" height="11.33" fill="#c4e6b7" opacity="0.044"/><rect x="160.98" y="0.00" width="5.71" height="11.33" fill="#c4e6b7" opacity="1.000"/><rect x="167.68" y="0.00" width="5.71" height="11.33" fill="#c4e6b7" opacity="1.000"/><rect x="174.39" y="0.00" width="5.71" height="11.33" fill="#c4e6b7" opacity="0.025"/><rect x="315.24" y="0.00" width="5.71" height="11.33" fill="#c4e6b7" opacity="1.000"/><rect x="321.95" y="0.00" width="5.71" height="11.33" fill="#c4e6b7" opacity="1.000"/><rect x="328.66" y="0.00" width="5.71" height="11.33" fill="#c4e6b7" opacity="1.000"/><rect x="335.37" y="0.00" width="5.71" height="11.33" fill="#c4e6b7" opacity="1.000"/><rect x="342.07" y="0.00" width="5.71" height="11.33" fill="#c4e6b7" opacity="1.000"/><rect x="348.78" y="0.00" width="5.71" height="11.33" fill="#c4e6b7" opacity="1.000"/><rect x="368.90" y="0.00" width="5.71" height="11.33" fill="#c4e6b7" opacity="0.034"/><rect x="375.61" y="0.00" width="5.71" height="11.33" fill="#c4e6b7" opacity="1.000"/><rect x="382.32" y="0.00" width="5.71" height="11.33" fill="#c4e6b7" opacity="1.000"/><rect x="496.34" y="0.00" width="5.71" height="11.33" fill="#c4e6b7" opacity="1.000"/><rect x="503.05" y="0.00" width="5.71" height="11.33" fill="#c4e6b7" opacity="1.000"/><rect x="509.76" y="0.00" width="5.71" height="11.33" fill="#c4e6b7" opacity="1.000"/><rect x="516.46" y="0.00" width="5.71" height="11.33" fill="#c4e6b7" opacity="0.079"/><rect x="583.54" y="0.00" width="5.71" height="11.33" fill="#c4e6b7" opacity="1.000"/><rect x="590.24" y="0.00" width="5.71" height="11.33" fill="#c4e6b7" opacity="1.000"/><rect x="596.95" y="0.00" width="5.71" height="11.33" fill="#c4e6b7" opacity="1.000"/><rect x="603.66" y="0.00" width="5.71" height="11.33" fill="#c4e6b7" opacity="1.000"/><rect x="670.73" y="0.00" width="5.71" height="11.33" fill="#c4e6b7" opacity="1.000"/><rect x="677.44" y="0.00" width="5.71" height="11.33" fill="#c4e6b7" opacity="1.000"/><rect x="684.15" y="0.00" width="5.71" height="11.33" fill="#c4e6b7" opacity="0.042"/><rect x="717.68" y="0.00" width="5.71" height="11.33" fill="#c4e6b7" opacity="1.000"/><rect x="724.39" y="0.00" width="5.71" height="11.33" fill="#c4e6b7" opacity="1.000"/><rect x="744.51" y="0.00" width="5.71" height="11.33" fill="#c4e6b7" opacity="0.558"/><rect x="751.22" y="0.00" width="5.71" height="11.33" fill="#c4e6b7" opacity="1.000"/><rect x="757.93" y="0.00" width="5.71" height="11.33" fill="#c4e6b7" opacity="1.000"/><rect x="764.63" y="0.00" width="5.71" height="11.33" fill="#c4e6b7" opacity="0.664"/><rect x="771.34" y="0.00" width="5.71" height="11.33" fill="#c4e6b7" opacity="1.000"/><rect x="778.05" y="0.00" width="5.71" height="11.33" fill="#c4e6b7" opacity="1.000"/><rect x="818.29" y="0.00" width="5.71" height="11.33" fill="#c4e6b7" opacity="1.000"/><rect x="825.00" y="0.00" width="5.71" height="11.33" fill="#c4e6b7" opacity="1.000"/><rect x="831.71" y="0.00" width="5.71" height="11.33" fill="#c4e6b7" opacity="1.000"/><rect x="838.41" y="0.00" width="5.71" height="11.33" fill="#c4e6b7" opacity="0.173"/><rect x="851.83" y="0.00" width="5.71" height="11.33" fill="#c4e6b7" opacity="1.000"/><rect x="858.54" y="0.00" width="5.71" height="11.33" fill="#c4e6b7" opacity="1.000"/><rect x="865.24" y="0.00" width="5.71" height="11.33" fill="#c4e6b7" opacity="1.000"/><rect x="871.95" y="0.00" width="5.71" height="11.33" fill="#c4e6b7" opacity="1.000"/><rect x="878.66" y="0.00" width="5.71" height="11.33" fill="#c4e6b7" opacity="1.000"/><rect x="885.37" y="0.00" width="5.71" height="11.33" fill="#c4e6b7" opacity="1.000"/><rect x="905.49" y="0.00" width="5.71" height="11.33" fill="#c4e6b7" opacity="0.130"/><rect x="912.20" y="0.00" width="5.71" height="11.33" fill="#c4e6b7" opacity="0.129"/><rect x="918.90" y="0.00" width="5.71" height="11.33" fill="#c4e6b7" opacity="0.130"/><rect x="925.61" y="0.00" width="5.71" height="11.33" fill="#c4e6b7" opacity="0.662"/><rect x="932.32" y="0.00" width="5.71" height="11.33" fill="#c4e6b7" opacity="0.748"/><rect x="939.02" y="0.00" width="5.71" height="11.33" fill="#c4e6b7" opacity="0.635"/><rect x="945.73" y="0.00" width="5.71" height="11.33" fill="#c4e6b7" opacity="0.183"/><rect x="992.68" y="0.00" width="5.71" height="11.33" fill="#c4e6b7" opacity="0.031"/><rect x="999.39" y="0.00" width="5.71" height="11.33" fill="#c4e6b7" opacity="1.000"/><rect x="1006.10" y="0.00" width="5.71" height="11.33" fill="#c4e6b7" opacity="1.000"/><rect x="1012.80" y="0.00" width="5.71" height="11.33" fill="#c4e6b7" opacity="1.000"/><rect x="1019.51" y="0.00" width="5.71" height="11.33" fill="#c4e6b7" opacity="0.039"/></svg>